<svg width="100%" height="100%" viewBox="0 0 194 41" version="1.1" xmlns="http://www.w3.org/2000/svg"
  style="fill-rule:evenodd;clip-rule:evenodd;stroke-linejoin:round;stroke-miterlimit:2;">
  <path
    d="M9.087,32.138l-0,7.998l-9.087,-0l0,-7.998l9.087,-0Zm-9.087,-22.71l0,-9.428l31.382,-0c21.682,0.102 22.123,39.804 -0,40.136l-12.729,-0l0,-7.994l5.93,-0c3.208,-0 5.893,-0.561 8.056,-1.683c2.163,-1.122 3.767,-2.596 4.812,-4.424c1.044,-1.827 1.566,-3.845 1.566,-6.052c-0,-2.388 -0.541,-4.505 -1.622,-6.351c-1.082,-1.845 -2.704,-3.293 -4.868,-4.342c-2.163,-1.05 -4.811,-1.574 -7.944,-1.574l-15.496,-0l-0,1.712l-9.087,-0Zm9.087,12.806l-0,2.534l-9.087,-0l0,-2.534l9.087,0Zm14.769,2.526c1.827,-0 3.189,-0.417 4.084,-1.249c0.895,-0.832 1.343,-2.008 1.343,-3.528c-0,-1.52 -0.448,-2.696 -1.343,-3.528c-0.895,-0.832 -2.257,-1.249 -4.084,-1.249l-5.203,0l0,9.554l5.203,-0Zm-14.769,-9.386l-0,2.63l-9.087,-0l0,-2.63l9.087,-0Zm-0,-4.803l-0,2.63l-9.087,0l0,-2.63l9.087,0Z"
    style="fill:#fff;" />
  <g>
    <path
      d="M77.105,16.743c0,1.325 -0.295,2.536 -0.885,3.633c-0.589,1.097 -1.495,1.982 -2.717,2.655c-1.222,0.674 -2.738,1.01 -4.55,1.01l-3.349,0l0,8.211l-5.403,-0l0,-22.872l8.752,0c1.77,0 3.265,0.315 4.487,0.945c1.222,0.63 2.138,1.499 2.749,2.606c0.611,1.108 0.916,2.379 0.916,3.812Zm-8.562,2.867c1.032,0 1.801,-0.249 2.306,-0.749c0.506,-0.499 0.758,-1.205 0.758,-2.118c0,-0.912 -0.252,-1.618 -0.758,-2.117c-0.505,-0.5 -1.274,-0.75 -2.306,-0.75l-2.939,0l0,5.734l2.939,0Z"
      style="fill-rule:nonzero;" />
    <path
      d="M91.228,32.252l-4.613,-8.634l-1.295,-0l0,8.634l-5.403,-0l0,-22.872l9.068,0c1.748,0 3.239,0.315 4.471,0.945c1.232,0.63 2.154,1.493 2.765,2.59c0.61,1.097 0.916,2.319 0.916,3.665c-0,1.521 -0.416,2.878 -1.248,4.073c-0.832,1.195 -2.059,2.042 -3.681,2.541l5.118,9.058l-6.098,-0Zm-5.908,-12.576l3.349,-0c0.99,-0 1.733,-0.25 2.228,-0.75c0.495,-0.499 0.742,-1.205 0.742,-2.117c0,-0.869 -0.247,-1.553 -0.742,-2.053c-0.495,-0.5 -1.238,-0.749 -2.228,-0.749l-3.349,-0l0,5.669Z"
      style="fill-rule:nonzero;" />
    <path
      d="M111.008,32.48c-2.086,-0 -3.997,-0.5 -5.735,-1.499c-1.738,-0.999 -3.118,-2.395 -4.139,-4.186c-1.022,-1.792 -1.533,-3.807 -1.533,-6.044c0,-2.237 0.511,-4.247 1.533,-6.028c1.021,-1.781 2.401,-3.171 4.139,-4.17c1.738,-0.999 3.649,-1.499 5.735,-1.499c2.085,0 3.996,0.5 5.734,1.499c1.738,0.999 3.107,2.389 4.108,4.17c1,1.781 1.5,3.791 1.5,6.028c0,2.237 -0.505,4.252 -1.516,6.044c-1.011,1.791 -2.38,3.187 -4.108,4.186c-1.727,0.999 -3.633,1.499 -5.718,1.499Zm-0,-5.083c1.769,0 3.185,-0.608 4.249,-1.824c1.064,-1.217 1.596,-2.824 1.596,-4.822c-0,-2.02 -0.532,-3.633 -1.596,-4.838c-1.064,-1.206 -2.48,-1.809 -4.249,-1.809c-1.791,0 -3.218,0.598 -4.282,1.792c-1.063,1.195 -1.595,2.813 -1.595,4.855c-0,2.02 0.532,3.633 1.595,4.838c1.064,1.206 2.491,1.808 4.282,1.808Z"
      style="fill-rule:nonzero;" />
    <path d="M130.755,27.951l7.077,0l0,4.301l-12.48,-0l0,-22.872l5.403,0l-0,18.571Z" style="fill-rule:nonzero;" />
    <path d="M156.379,9.38l0,4.464l-5.877,-0l0,18.408l-5.403,-0l0,-18.408l-5.876,-0l-0,-4.464l17.156,0Z"
      style="fill-rule:nonzero;" />
    <path
      d="M164.499,13.844l0,4.626l7.236,0l-0,4.301l-7.236,-0l0,5.017l8.184,0l-0,4.464l-13.587,-0l0,-22.872l13.587,0l-0,4.464l-8.184,-0Z"
      style="fill-rule:nonzero;" />
    <path
      d="M187.501,32.252l-4.613,-8.634l-1.295,-0l-0,8.634l-5.403,-0l-0,-22.872l9.068,0c1.748,0 3.238,0.315 4.471,0.945c1.232,0.63 2.153,1.493 2.764,2.59c0.611,1.097 0.917,2.319 0.917,3.665c-0,1.521 -0.416,2.878 -1.248,4.073c-0.832,1.195 -2.059,2.042 -3.681,2.541l5.118,9.058l-6.098,-0Zm-5.908,-12.576l3.349,-0c0.99,-0 1.732,-0.25 2.227,-0.75c0.495,-0.499 0.743,-1.205 0.743,-2.117c-0,-0.869 -0.248,-1.553 -0.743,-2.053c-0.495,-0.5 -1.237,-0.749 -2.227,-0.749l-3.349,-0l-0,5.669Z"
      style="fill-rule:nonzero;" />
  </g>
</svg>